<mxfile host="app.diagrams.net" modified="2023-12-11T13:52:30.533Z" agent="Mozilla/5.0 (Windows NT 10.0; Win64; x64) AppleWebKit/537.36 (KHTML, like Gecko) Chrome/119.0.0.0 Safari/537.36" etag="BtDK2EmvztIacrYSe4n6" version="22.1.7" type="device">
  <diagram name="Page-1" id="mR5GMEBeev_RYWWCOcCr">
    <mxGraphModel dx="1434" dy="782" grid="0" gridSize="10" guides="1" tooltips="1" connect="1" arrows="1" fold="1" page="0" pageScale="1" pageWidth="827" pageHeight="1169" math="0" shadow="0">
      <root>
        <mxCell id="0" />
        <mxCell id="1" parent="0" />
        <mxCell id="yDfbadPPPctox4IWPfiL-2" style="edgeStyle=orthogonalEdgeStyle;rounded=0;orthogonalLoop=1;jettySize=auto;html=1;exitX=0;exitY=0.5;exitDx=0;exitDy=0;endArrow=none;endFill=0;" parent="1" source="yDfbadPPPctox4IWPfiL-1" edge="1">
          <mxGeometry relative="1" as="geometry">
            <mxPoint x="110" y="320" as="targetPoint" />
          </mxGeometry>
        </mxCell>
        <mxCell id="yDfbadPPPctox4IWPfiL-6" style="edgeStyle=orthogonalEdgeStyle;rounded=0;orthogonalLoop=1;jettySize=auto;html=1;exitX=1;exitY=0.5;exitDx=0;exitDy=0;entryX=0;entryY=0.5;entryDx=0;entryDy=0;" parent="1" source="yDfbadPPPctox4IWPfiL-1" target="yDfbadPPPctox4IWPfiL-4" edge="1">
          <mxGeometry relative="1" as="geometry" />
        </mxCell>
        <mxCell id="yDfbadPPPctox4IWPfiL-27" value="Так" style="edgeLabel;html=1;align=center;verticalAlign=middle;resizable=0;points=[];" parent="yDfbadPPPctox4IWPfiL-6" vertex="1" connectable="0">
          <mxGeometry x="-0.28" y="-1" relative="1" as="geometry">
            <mxPoint y="-11" as="offset" />
          </mxGeometry>
        </mxCell>
        <mxCell id="yDfbadPPPctox4IWPfiL-1" value="Операція первинного регулювання вільна?" style="rhombus;whiteSpace=wrap;html=1;" parent="1" vertex="1">
          <mxGeometry x="180" y="280" width="150" height="80" as="geometry" />
        </mxCell>
        <mxCell id="yDfbadPPPctox4IWPfiL-4" value="Первинне регулювання" style="rounded=0;whiteSpace=wrap;html=1;" parent="1" vertex="1">
          <mxGeometry x="376" y="289.83" width="120" height="60" as="geometry" />
        </mxCell>
        <mxCell id="--CsKufyyPmSSQCQn5QF-5" style="edgeStyle=orthogonalEdgeStyle;rounded=0;orthogonalLoop=1;jettySize=auto;html=1;exitX=1;exitY=0.5;exitDx=0;exitDy=0;" edge="1" parent="1" source="yDfbadPPPctox4IWPfiL-5" target="--CsKufyyPmSSQCQn5QF-4">
          <mxGeometry relative="1" as="geometry" />
        </mxCell>
        <mxCell id="yDfbadPPPctox4IWPfiL-5" value="Вторинне регулювання" style="rounded=0;whiteSpace=wrap;html=1;" parent="1" vertex="1">
          <mxGeometry x="768" y="289.83" width="120" height="60" as="geometry" />
        </mxCell>
        <mxCell id="--CsKufyyPmSSQCQn5QF-7" style="edgeStyle=orthogonalEdgeStyle;rounded=0;orthogonalLoop=1;jettySize=auto;html=1;exitX=1;exitY=0.5;exitDx=0;exitDy=0;entryX=0;entryY=0.5;entryDx=0;entryDy=0;" edge="1" parent="1" source="yDfbadPPPctox4IWPfiL-9" target="--CsKufyyPmSSQCQn5QF-2">
          <mxGeometry relative="1" as="geometry" />
        </mxCell>
        <mxCell id="yDfbadPPPctox4IWPfiL-9" value="Накопичувач" style="shape=dataStorage;whiteSpace=wrap;html=1;fixedSize=1;rotation=0;" parent="1" vertex="1">
          <mxGeometry x="382" y="426" width="120" height="80" as="geometry" />
        </mxCell>
        <mxCell id="yDfbadPPPctox4IWPfiL-18" style="edgeStyle=orthogonalEdgeStyle;rounded=0;orthogonalLoop=1;jettySize=auto;html=1;exitX=1;exitY=0.5;exitDx=0;exitDy=0;entryX=0;entryY=0.5;entryDx=0;entryDy=0;" parent="1" source="yDfbadPPPctox4IWPfiL-10" edge="1" target="yDfbadPPPctox4IWPfiL-31">
          <mxGeometry relative="1" as="geometry">
            <mxPoint x="560" y="460" as="targetPoint" />
          </mxGeometry>
        </mxCell>
        <mxCell id="yDfbadPPPctox4IWPfiL-10" value="Повне регулювання" style="rounded=0;whiteSpace=wrap;html=1;" parent="1" vertex="1">
          <mxGeometry x="768" y="458" width="120" height="60" as="geometry" />
        </mxCell>
        <mxCell id="yDfbadPPPctox4IWPfiL-26" style="edgeStyle=orthogonalEdgeStyle;rounded=0;orthogonalLoop=1;jettySize=auto;html=1;exitX=0.5;exitY=1;exitDx=0;exitDy=0;entryX=0;entryY=0.5;entryDx=0;entryDy=0;" parent="1" source="yDfbadPPPctox4IWPfiL-1" target="yDfbadPPPctox4IWPfiL-9" edge="1">
          <mxGeometry relative="1" as="geometry" />
        </mxCell>
        <mxCell id="yDfbadPPPctox4IWPfiL-28" value="Ні" style="edgeLabel;html=1;align=center;verticalAlign=middle;resizable=0;points=[];" parent="yDfbadPPPctox4IWPfiL-26" vertex="1" connectable="0">
          <mxGeometry x="-0.3076" y="-1" relative="1" as="geometry">
            <mxPoint x="-14" y="-3" as="offset" />
          </mxGeometry>
        </mxCell>
        <mxCell id="yDfbadPPPctox4IWPfiL-30" value="Надходження&lt;br&gt;агрегатів" style="text;html=1;align=center;verticalAlign=middle;resizable=0;points=[];autosize=1;strokeColor=none;fillColor=none;" parent="1" vertex="1">
          <mxGeometry x="90" y="279.83" width="100" height="40" as="geometry" />
        </mxCell>
        <mxCell id="yDfbadPPPctox4IWPfiL-31" value="Вихід агрегатів з повного регулювання" style="text;html=1;strokeColor=none;fillColor=none;align=center;verticalAlign=middle;whiteSpace=wrap;rounded=0;" parent="1" vertex="1">
          <mxGeometry x="943" y="473" width="130" height="30" as="geometry" />
        </mxCell>
        <mxCell id="--CsKufyyPmSSQCQn5QF-1" style="edgeStyle=orthogonalEdgeStyle;rounded=0;orthogonalLoop=1;jettySize=auto;html=1;exitX=0.5;exitY=1;exitDx=0;exitDy=0;entryX=0.45;entryY=0.025;entryDx=0;entryDy=0;entryPerimeter=0;" edge="1" parent="1" source="yDfbadPPPctox4IWPfiL-4" target="yDfbadPPPctox4IWPfiL-9">
          <mxGeometry relative="1" as="geometry" />
        </mxCell>
        <mxCell id="--CsKufyyPmSSQCQn5QF-3" style="edgeStyle=orthogonalEdgeStyle;rounded=0;orthogonalLoop=1;jettySize=auto;html=1;exitX=1;exitY=0.5;exitDx=0;exitDy=0;entryX=0;entryY=0.5;entryDx=0;entryDy=0;" edge="1" parent="1" source="--CsKufyyPmSSQCQn5QF-2" target="yDfbadPPPctox4IWPfiL-5">
          <mxGeometry relative="1" as="geometry" />
        </mxCell>
        <mxCell id="--CsKufyyPmSSQCQn5QF-6" style="edgeStyle=orthogonalEdgeStyle;rounded=0;orthogonalLoop=1;jettySize=auto;html=1;exitX=0.5;exitY=1;exitDx=0;exitDy=0;entryX=0;entryY=0.5;entryDx=0;entryDy=0;" edge="1" parent="1" source="--CsKufyyPmSSQCQn5QF-2" target="yDfbadPPPctox4IWPfiL-10">
          <mxGeometry relative="1" as="geometry" />
        </mxCell>
        <mxCell id="--CsKufyyPmSSQCQn5QF-2" value="Агрегати пройшли первинне регулювання?" style="rhombus;whiteSpace=wrap;html=1;" vertex="1" parent="1">
          <mxGeometry x="549" y="345" width="159" height="123.17" as="geometry" />
        </mxCell>
        <mxCell id="--CsKufyyPmSSQCQn5QF-4" value="Вихід агрегатів з вторинного регулювання" style="text;html=1;strokeColor=none;fillColor=none;align=center;verticalAlign=middle;whiteSpace=wrap;rounded=0;" vertex="1" parent="1">
          <mxGeometry x="936" y="305" width="130" height="30" as="geometry" />
        </mxCell>
        <mxCell id="--CsKufyyPmSSQCQn5QF-8" value="Так" style="edgeLabel;html=1;align=center;verticalAlign=middle;resizable=0;points=[];" vertex="1" connectable="0" parent="1">
          <mxGeometry x="650" y="314" as="geometry">
            <mxPoint x="81" y="41" as="offset" />
          </mxGeometry>
        </mxCell>
        <mxCell id="--CsKufyyPmSSQCQn5QF-9" value="Ні" style="edgeLabel;html=1;align=center;verticalAlign=middle;resizable=0;points=[];" vertex="1" connectable="0" parent="1">
          <mxGeometry x="252" y="449" as="geometry">
            <mxPoint x="446" y="29" as="offset" />
          </mxGeometry>
        </mxCell>
      </root>
    </mxGraphModel>
  </diagram>
</mxfile>
